<svg width="186" height="55" viewBox="0 0 186 55" fill="none" xmlns="http://www.w3.org/2000/svg">
<path d="M108.25 17.9067L124 27L108.25 36.0933L108.25 17.9067Z" stroke="#C5C5C5"/>
<rect x="0.5" y="6" width="108" height="43" rx="7.5" fill="white"/>
<rect x="0.5" y="6" width="108" height="43" rx="7.5" stroke="#C5C5C5"/>
<path d="M13.056 27.9C13.056 28.636 13.2213 29.2813 13.552 29.836C13.8933 30.38 14.336 30.8013 14.88 31.1C15.424 31.388 16.016 31.532 16.656 31.532C17.1893 31.532 17.664 31.4627 18.08 31.324C18.496 31.1853 18.8693 30.9987 19.2 30.764C19.5413 30.5293 19.8347 30.2733 20.08 29.996V32.572C19.6213 32.9347 19.12 33.2173 18.576 33.42C18.0427 33.6227 17.3653 33.724 16.544 33.724C15.6907 33.724 14.896 33.5853 14.16 33.308C13.4347 33.0307 12.8 32.6307 12.256 32.108C11.7227 31.5853 11.3067 30.972 11.008 30.268C10.72 29.5533 10.576 28.764 10.576 27.9C10.576 27.036 10.72 26.252 11.008 25.548C11.3067 24.8333 11.7227 24.2147 12.256 23.692C12.8 23.1693 13.4347 22.7693 14.16 22.492C14.896 22.2147 15.6907 22.076 16.544 22.076C17.3653 22.076 18.0427 22.1773 18.576 22.38C19.12 22.5827 19.6213 22.8653 20.08 23.228V25.804C19.8347 25.5267 19.5413 25.2707 19.2 25.036C18.8693 24.8013 18.496 24.6147 18.08 24.476C17.664 24.3373 17.1893 24.268 16.656 24.268C16.016 24.268 15.424 24.4173 14.88 24.716C14.336 25.004 13.8933 25.42 13.552 25.964C13.2213 26.508 13.056 27.1533 13.056 27.9ZM24.2446 21.02V33.5H22.1646V21.02H24.2446ZM26.9166 29.02C26.9166 28.5293 26.8206 28.156 26.6286 27.9C26.4473 27.644 26.138 27.516 25.7006 27.516C25.4126 27.516 25.1566 27.58 24.9326 27.708C24.7086 27.8253 24.538 27.996 24.4206 28.22C24.3033 28.444 24.2446 28.7107 24.2446 29.02H23.8286C23.8286 28.4333 23.9246 27.9053 24.1166 27.436C24.3193 26.9667 24.618 26.5933 25.0126 26.316C25.4073 26.0387 25.8926 25.9 26.4686 25.9C27.0446 25.9 27.5193 26.0067 27.8926 26.22C28.266 26.4333 28.5433 26.7533 28.7246 27.18C28.906 27.596 28.9966 28.108 28.9966 28.716V33.5H26.9166V29.02ZM32.5116 31.212C32.5116 31.4253 32.565 31.612 32.6716 31.772C32.7783 31.9213 32.9223 32.0387 33.1036 32.124C33.2956 32.1987 33.5036 32.236 33.7276 32.236C34.0476 32.236 34.3356 32.172 34.5916 32.044C34.8476 31.9053 35.0556 31.7133 35.2156 31.468C35.3756 31.212 35.4556 30.908 35.4556 30.556L35.7116 31.516C35.7116 31.9853 35.5783 32.38 35.3116 32.7C35.0556 33.02 34.7196 33.26 34.3036 33.42C33.8983 33.58 33.4716 33.66 33.0236 33.66C32.565 33.66 32.1383 33.5693 31.7436 33.388C31.349 33.2067 31.029 32.9453 30.7836 32.604C30.549 32.252 30.4316 31.8253 30.4316 31.324C30.4316 30.6093 30.6823 30.044 31.1836 29.628C31.685 29.212 32.3943 29.004 33.3116 29.004C33.781 29.004 34.1916 29.052 34.5436 29.148C34.9063 29.244 35.2103 29.3613 35.4556 29.5C35.701 29.6387 35.877 29.772 35.9836 29.9V30.86C35.6956 30.6467 35.3703 30.4867 35.0076 30.38C34.6556 30.2733 34.2823 30.22 33.8876 30.22C33.5676 30.22 33.3063 30.2627 33.1036 30.348C32.901 30.4227 32.7516 30.5347 32.6556 30.684C32.5596 30.8227 32.5116 30.9987 32.5116 31.212ZM31.7116 28.22L30.9436 26.812C31.3276 26.6093 31.797 26.4173 32.3516 26.236C32.9063 26.044 33.525 25.948 34.2076 25.948C34.837 25.948 35.397 26.0387 35.8876 26.22C36.3783 26.4013 36.7623 26.668 37.0396 27.02C37.317 27.3613 37.4556 27.7827 37.4556 28.284V33.5H35.4556V28.716C35.4556 28.5133 35.4236 28.3427 35.3596 28.204C35.2956 28.0547 35.1943 27.932 35.0556 27.836C34.9276 27.74 34.773 27.6707 34.5916 27.628C34.4103 27.5853 34.2076 27.564 33.9836 27.564C33.6423 27.564 33.317 27.6013 33.0076 27.676C32.6983 27.7507 32.4316 27.8413 32.2076 27.948C31.9836 28.0547 31.8183 28.1453 31.7116 28.22ZM38.4394 26.14H42.9834V27.884H38.4394V26.14ZM39.7034 23.58H41.7034V33.5H39.7034V23.58ZM47.7954 26.14H50.0034L51.6194 30.22L53.6994 25.58L55.8594 30.236L57.4914 26.14H59.6834L56.0834 33.996L53.7154 29.308L51.4114 33.996L47.7954 26.14ZM60.5686 23.292C60.5686 22.9507 60.6913 22.6733 60.9366 22.46C61.182 22.236 61.4753 22.124 61.8166 22.124C62.158 22.124 62.446 22.236 62.6806 22.46C62.926 22.6733 63.0486 22.9507 63.0486 23.292C63.0486 23.6227 62.926 23.9 62.6806 24.124C62.446 24.348 62.158 24.46 61.8166 24.46C61.4753 24.46 61.182 24.348 60.9366 24.124C60.6913 23.9 60.5686 23.6227 60.5686 23.292ZM60.7926 26.14H62.8086V33.5H60.7926V26.14ZM64.0644 26.14H68.6084V27.884H64.0644V26.14ZM65.3284 23.58H67.3284V33.5H65.3284V23.58ZM71.7915 21.02V33.5H69.7115V21.02H71.7915ZM74.4635 29.02C74.4635 28.5293 74.3675 28.156 74.1755 27.9C73.9942 27.644 73.6848 27.516 73.2475 27.516C72.9595 27.516 72.7035 27.58 72.4795 27.708C72.2555 27.8253 72.0848 27.996 71.9675 28.22C71.8502 28.444 71.7915 28.7107 71.7915 29.02H71.3755C71.3755 28.4333 71.4715 27.9053 71.6635 27.436C71.8662 26.9667 72.1648 26.5933 72.5595 26.316C72.9542 26.0387 73.4395 25.9 74.0155 25.9C74.5915 25.9 75.0662 26.0067 75.4395 26.22C75.8128 26.4333 76.0902 26.7533 76.2715 27.18C76.4528 27.596 76.5435 28.108 76.5435 28.716V33.5H74.4635V29.02ZM85.5274 30.62C85.5274 31.1 85.6234 31.4733 85.8154 31.74C86.0074 31.996 86.3167 32.124 86.7434 32.124C87.042 32.124 87.298 32.0653 87.5114 31.948C87.7354 31.82 87.906 31.644 88.0234 31.42C88.1514 31.196 88.2154 30.9293 88.2154 30.62V26.14H90.2794V33.5H88.2154V32.38C87.9807 32.796 87.682 33.116 87.3194 33.34C86.9567 33.5533 86.514 33.66 85.9914 33.66C85.1167 33.66 84.4607 33.4093 84.0234 32.908C83.5967 32.4067 83.3834 31.7187 83.3834 30.844V26.14H85.5274V30.62ZM92.6889 30.956C92.9982 31.244 93.2862 31.4787 93.5529 31.66C93.8195 31.8307 94.0702 31.9587 94.3049 32.044C94.5502 32.1293 94.7795 32.172 94.9929 32.172C95.2702 32.172 95.4835 32.1133 95.6329 31.996C95.7822 31.868 95.8569 31.6973 95.8569 31.484C95.8569 31.292 95.7929 31.132 95.6649 31.004C95.5475 30.8653 95.3715 30.7427 95.1369 30.636C94.9022 30.5293 94.6035 30.4173 94.2409 30.3C93.8995 30.172 93.5689 30.0227 93.2489 29.852C92.9289 29.6707 92.6622 29.436 92.4489 29.148C92.2462 28.8493 92.1449 28.4707 92.1449 28.012C92.1449 27.5747 92.2622 27.2067 92.4969 26.908C92.7315 26.5987 93.0462 26.3693 93.4409 26.22C93.8462 26.06 94.2942 25.98 94.7849 25.98C95.2009 25.98 95.5902 26.0333 95.9529 26.14C96.3155 26.2467 96.6515 26.3907 96.9609 26.572C97.2702 26.7427 97.5422 26.9453 97.7769 27.18L96.8649 28.46C96.5982 28.172 96.2782 27.9373 95.9049 27.756C95.5422 27.5747 95.1849 27.484 94.8329 27.484C94.5982 27.484 94.4115 27.532 94.2729 27.628C94.1449 27.7133 94.0809 27.8467 94.0809 28.028C94.0809 28.188 94.1449 28.332 94.2729 28.46C94.4115 28.5773 94.6035 28.684 94.8489 28.78C95.1049 28.876 95.3929 28.9933 95.7129 29.132C96.1075 29.2813 96.4702 29.452 96.8009 29.644C97.1422 29.8253 97.4142 30.0547 97.6169 30.332C97.8195 30.6093 97.9209 30.972 97.9209 31.42C97.9209 32.156 97.6809 32.732 97.2009 33.148C96.7209 33.5533 96.0595 33.756 95.2169 33.756C94.6942 33.756 94.2142 33.6867 93.7769 33.548C93.3502 33.4093 92.9609 33.228 92.6089 33.004C92.2675 32.7693 91.9582 32.5187 91.6809 32.252L92.6889 30.956Z" fill="#48484A"/>
<g clip-path="url(#clip0_47_301)">
<path d="M177.75 0H139.25C134.694 0 131 3.69365 131 8.25V46.75C131 51.3064 134.694 55 139.25 55H177.75C182.306 55 186 51.3064 186 46.75V8.25C186 3.69365 182.306 0 177.75 0Z" fill="#25D366"/>
<path d="M144.213 42.217L145.717 35.2346C143.784 32.1858 143.03 28.5365 143.596 24.9712C144.162 21.406 146.01 18.17 148.793 15.8702C151.575 13.5705 155.101 12.3651 158.71 12.4802C162.318 12.5953 165.76 14.0231 168.39 16.4955C171.02 18.968 172.658 22.3153 172.996 25.9094C173.334 29.5034 172.349 33.0973 170.225 36.0167C168.102 38.936 164.986 40.9803 161.463 41.7658C157.939 42.5514 154.25 42.0243 151.088 40.2835L144.213 42.217Z" fill="#25D366" stroke="white" stroke-width="2.79297"/>
<path d="M164.086 29.3261C163.764 29.1112 163.441 29.0038 163.119 29.4335L161.83 31.1522C161.508 31.3671 161.293 31.4745 160.863 31.2597C159.252 30.4003 156.996 29.4335 155.062 26.2108C154.955 25.7812 155.17 25.5663 155.385 25.3515L156.352 23.8476C156.566 23.6327 156.459 23.4179 156.352 23.203L155.062 20.0878C154.74 19.2284 154.418 19.3358 154.096 19.3358H153.236C153.021 19.3358 152.592 19.4433 152.162 19.8729C149.799 22.2362 150.766 25.5663 152.484 27.7147C152.807 28.1444 154.955 32.0116 159.574 34.0526C163.012 35.5565 163.764 35.3417 164.73 35.1269C165.912 35.0194 167.094 34.0526 167.631 33.0858C167.738 32.7636 168.275 31.3671 167.846 31.1522" fill="white"/>
</g>
<defs>
<clipPath id="clip0_47_301">
<rect width="55" height="55" fill="white" transform="translate(131)"/>
</clipPath>
</defs>
</svg>
