<svg width="35" height="35" viewBox="0 0 35 35" fill="none" xmlns="http://www.w3.org/2000/svg">
<rect width="35" height="35" rx="17.5" fill="#007AFF"/>
<g clip-path="url(#clip0_19_25)">
<path fill-rule="evenodd" clip-rule="evenodd" d="M21.3001 16.0993L21.0425 17.9794H17.9488V24.5599H16.0686V17.9794H13.2484V16.0993H16.0686V14.3761C16.0686 11.9856 17.537 10.4401 19.811 10.4401C20.785 10.4401 21.3922 10.4918 21.7429 10.5388L21.7156 12.3193L20.2698 12.3221C20.2303 12.3183 19.2884 12.245 18.6087 12.8692C18.1706 13.2706 17.9488 13.8478 17.9488 14.583V16.0993H21.3001V16.0993ZM19.2395 13.5658C19.6099 13.2208 20.1871 13.2584 20.2294 13.2603L22.6416 13.2593L22.6933 9.78014L22.3304 9.69083C22.0973 9.6335 21.3838 9.5 19.811 9.5C17.0106 9.5 15.1286 11.4601 15.1286 14.3761V15.1592H12.3083V18.9195H15.1286V25.5H18.8888V18.9195H21.8613L22.3774 15.1592H18.8888V14.583C18.8888 14.1252 19.0073 13.783 19.2395 13.5658Z" fill="white"/>
</g>
<defs>
<clipPath id="clip0_19_25">
<rect width="16" height="16" fill="white" transform="translate(9.5 9.5)"/>
</clipPath>
</defs>
</svg>
