<svg width="35" height="36" viewBox="0 0 35 36" fill="none" xmlns="http://www.w3.org/2000/svg">
<rect x="0.5" y="1" width="34" height="34" rx="17" fill="white"/>
<rect x="0.5" y="1" width="34" height="34" rx="17" stroke="#E7BF44"/>
<path d="M19.1083 13.9584H20.7167C20.8647 13.9584 20.9848 13.8452 20.9848 13.7058V12.1902C20.9848 12.0508 20.8647 11.9376 20.7167 11.9376H19.1083C17.4828 11.9376 16.1596 13.1839 16.1596 14.7162V16.4844H14.2832C14.1352 16.4844 14.0151 16.5975 14.0151 16.737V18.2526C14.0151 18.392 14.1352 18.5052 14.2832 18.5052H16.1596V23.8097C16.1596 23.9492 16.2797 24.0623 16.4277 24.0623H18.0361C18.1841 24.0623 18.3041 23.9492 18.3041 23.8097V18.5052H20.1806C20.2959 18.5052 20.3983 18.4355 20.4352 18.3324L20.9714 16.8168C20.9987 16.74 20.9848 16.6551 20.9344 16.589C20.8834 16.5233 20.803 16.4844 20.7167 16.4844H18.3041V14.7162C18.3041 14.2984 18.665 13.9584 19.1083 13.9584Z" fill="#E7BF44"/>
</svg>
