<svg width="35" height="35" viewBox="0 0 35 35" fill="none" xmlns="http://www.w3.org/2000/svg">
<rect width="35" height="35" rx="17.5" fill="#FF2D55"/>
<path fill-rule="evenodd" clip-rule="evenodd" d="M17.5 23.5C20.8137 23.5 23.5 20.8137 23.5 17.5C23.5 14.1863 20.8137 11.5 17.5 11.5C14.1863 11.5 11.5 14.1863 11.5 17.5C11.5 20.8137 14.1863 23.5 17.5 23.5ZM17.5 21.5C19.7091 21.5 21.5 19.7091 21.5 17.5C21.5 15.2909 19.7091 13.5 17.5 13.5C15.2909 13.5 13.5 15.2909 13.5 17.5C13.5 19.7091 15.2909 21.5 17.5 21.5Z" fill="white"/>
<path d="M23.5 10.5C22.9477 10.5 22.5 10.9477 22.5 11.5C22.5 12.0523 22.9477 12.5 23.5 12.5C24.0523 12.5 24.5 12.0523 24.5 11.5C24.5 10.9477 24.0523 10.5 23.5 10.5Z" fill="white"/>
<path fill-rule="evenodd" clip-rule="evenodd" d="M7.15396 9.77606C6.5 11.0595 6.5 12.7397 6.5 16.1V18.9C6.5 22.2603 6.5 23.9405 7.15396 25.2239C7.7292 26.3529 8.64708 27.2708 9.77606 27.846C11.0595 28.5 12.7397 28.5 16.1 28.5H18.9C22.2603 28.5 23.9405 28.5 25.2239 27.846C26.3529 27.2708 27.2708 26.3529 27.846 25.2239C28.5 23.9405 28.5 22.2603 28.5 18.9V16.1C28.5 12.7397 28.5 11.0595 27.846 9.77606C27.2708 8.64708 26.3529 7.7292 25.2239 7.15396C23.9405 6.5 22.2603 6.5 18.9 6.5H16.1C12.7397 6.5 11.0595 6.5 9.77606 7.15396C8.64708 7.7292 7.7292 8.64708 7.15396 9.77606ZM18.9 8.5H16.1C14.3868 8.5 13.2222 8.50156 12.3221 8.5751C11.4452 8.64674 10.9968 8.77659 10.684 8.93597C9.93139 9.31947 9.31947 9.93139 8.93597 10.684C8.77659 10.9968 8.64674 11.4452 8.5751 12.3221C8.50156 13.2222 8.5 14.3868 8.5 16.1V18.9C8.5 20.6132 8.50156 21.7777 8.5751 22.6779C8.64674 23.5548 8.77659 24.0032 8.93597 24.316C9.31947 25.0686 9.93139 25.6805 10.684 26.064C10.9968 26.2234 11.4452 26.3533 12.3221 26.4249C13.2222 26.4984 14.3868 26.5 16.1 26.5H18.9C20.6132 26.5 21.7777 26.4984 22.6779 26.4249C23.5548 26.3533 24.0032 26.2234 24.316 26.064C25.0686 25.6805 25.6805 25.0686 26.064 24.316C26.2234 24.0032 26.3533 23.5548 26.4249 22.6779C26.4984 21.7777 26.5 20.6132 26.5 18.9V16.1C26.5 14.3868 26.4984 13.2222 26.4249 12.3221C26.3533 11.4452 26.2234 10.9968 26.064 10.684C25.6805 9.93139 25.0686 9.31947 24.316 8.93597C24.0032 8.77659 23.5548 8.64674 22.6779 8.5751C21.7777 8.50156 20.6132 8.5 18.9 8.5Z" fill="white"/>
</svg>
