<svg width="35" height="35" viewBox="0 0 35 35" fill="none" xmlns="http://www.w3.org/2000/svg">
<rect width="35" height="35" rx="17.5" fill="#FF2D55"/>
<path fill-rule="evenodd" clip-rule="evenodd" d="M17.5 23.5C20.8137 23.5 23.5 20.8137 23.5 17.5C23.5 14.1863 20.8137 11.5 17.5 11.5C14.1863 11.5 11.5 14.1863 11.5 17.5C11.5 20.8137 14.1863 23.5 17.5 23.5ZM17.5 21.5C19.7091 21.5 21.5 19.7091 21.5 17.5C21.5 15.2909 19.7091 13.5 17.5 13.5C15.2909 13.5 13.5 15.2909 13.5 17.5C13.5 19.7091 15.2909 21.5 17.5 21.5Z" fill="white"/>
<path d="M23.5 10.4999C22.9477 10.4999 22.5 10.9476 22.5 11.4999C22.5 12.0522 22.9477 12.4999 23.5 12.4999C24.0523 12.4999 24.5 12.0522 24.5 11.4999C24.5 10.9476 24.0523 10.4999 23.5 10.4999Z" fill="white"/>
<path fill-rule="evenodd" clip-rule="evenodd" d="M7.15396 9.77618C6.5 11.0597 6.5 12.7398 6.5 16.1001V18.9001C6.5 22.2604 6.5 23.9406 7.15396 25.224C7.7292 26.353 8.64708 27.2709 9.77606 27.8461C11.0595 28.5001 12.7397 28.5001 16.1 28.5001H18.9C22.2603 28.5001 23.9405 28.5001 25.2239 27.8461C26.3529 27.2709 27.2708 26.353 27.846 25.224C28.5 23.9406 28.5 22.2604 28.5 18.9001V16.1001C28.5 12.7398 28.5 11.0597 27.846 9.77618C27.2708 8.6472 26.3529 7.72932 25.2239 7.15408C23.9405 6.50012 22.2603 6.50012 18.9 6.50012H16.1C12.7397 6.50012 11.0595 6.50012 9.77606 7.15408C8.64708 7.72932 7.7292 8.6472 7.15396 9.77618ZM18.9 8.50012H16.1C14.3868 8.50012 13.2222 8.50168 12.3221 8.57522C11.4452 8.64686 10.9968 8.77671 10.684 8.93609C9.93139 9.31959 9.31947 9.93151 8.93597 10.6842C8.77659 10.997 8.64674 11.4454 8.5751 12.3222C8.50156 13.2224 8.5 14.387 8.5 16.1001V18.9001C8.5 20.6133 8.50156 21.7778 8.5751 22.678C8.64674 23.5549 8.77659 24.0033 8.93597 24.3161C9.31947 25.0687 9.93139 25.6806 10.684 26.0641C10.9968 26.2235 11.4452 26.3534 12.3221 26.425C13.2222 26.4985 14.3868 26.5001 16.1 26.5001H18.9C20.6132 26.5001 21.7777 26.4985 22.6779 26.425C23.5548 26.3534 24.0032 26.2235 24.316 26.0641C25.0686 25.6806 25.6805 25.0687 26.064 24.3161C26.2234 24.0033 26.3533 23.5549 26.4249 22.678C26.4984 21.7778 26.5 20.6133 26.5 18.9001V16.1001C26.5 14.387 26.4984 13.2224 26.4249 12.3222C26.3533 11.4454 26.2234 10.997 26.064 10.6842C25.6805 9.93151 25.0686 9.31959 24.316 8.93609C24.0032 8.77671 23.5548 8.64686 22.6779 8.57522C21.7777 8.50168 20.6132 8.50012 18.9 8.50012Z" fill="white"/>
</svg>
