<svg width="35" height="36" viewBox="0 0 35 36" fill="none" xmlns="http://www.w3.org/2000/svg">
<rect x="0.5" y="1" width="34" height="34" rx="17" fill="white"/>
<rect x="0.5" y="1" width="34" height="34" rx="17" stroke="#E7BF44"/>
<path d="M12.4835 15.0319C13.3029 15.0319 13.9671 14.3677 13.9671 13.5484C13.9671 12.729 13.3029 12.0648 12.4835 12.0648C11.6642 12.0648 11 12.729 11 13.5484C11 14.3677 11.6642 15.0319 12.4835 15.0319Z" fill="#E7BF44"/>
<path d="M13.7198 16.0228H11.2473C11.1108 16.0228 11 16.1336 11 16.2701V23.6878C11 23.8243 11.1108 23.9351 11.2473 23.9351H13.7198C13.8563 23.9351 13.9671 23.8243 13.9671 23.6878V16.2701C13.9671 16.1336 13.8563 16.0228 13.7198 16.0228Z" fill="#E7BF44"/>
<path d="M21.088 15.6115C20.0313 15.2495 18.7094 15.5675 17.9167 16.1376C17.8895 16.0313 17.7926 15.9522 17.6774 15.9522H15.2048C15.0683 15.9522 14.9575 16.063 14.9575 16.1994V23.6172C14.9575 23.7537 15.0683 23.8644 15.2048 23.8644H17.6774C17.8138 23.8644 17.9246 23.7537 17.9246 23.6172V18.2863C18.3242 17.9421 18.839 17.8323 19.2603 18.0114C19.6688 18.1839 19.9027 18.6053 19.9027 19.1665V23.6172C19.9027 23.7537 20.0135 23.8644 20.1499 23.8644H22.6225C22.759 23.8644 22.8698 23.7537 22.8698 23.6172V18.6686C22.8416 16.6366 21.8857 15.8844 21.088 15.6115Z" fill="#E7BF44"/>
</svg>
