<svg width="35" height="35" viewBox="0 0 35 35" fill="none" xmlns="http://www.w3.org/2000/svg">
<rect width="35" height="35" rx="17.5" fill="#101010"/>
<path d="M8 17.5C8 13.0217 8 10.7825 9.39124 9.39124C10.7825 8 13.0217 8 17.5 8C21.9783 8 24.2175 8 25.6088 9.39124C27 10.7825 27 13.0217 27 17.5C27 21.9783 27 24.2175 25.6088 25.6088C24.2175 27 21.9783 27 17.5 27C13.0217 27 10.7825 27 9.39124 25.6088C8 24.2175 8 21.9783 8 17.5Z" stroke="white" stroke-width="1.5" stroke-linejoin="round"/>
<path d="M15.8938 17.2779C16.3038 17.3365 16.6838 17.0517 16.7424 16.6416C16.8011 16.2316 16.5162 15.8517 16.1062 15.793L15.8938 17.2779ZM23 15.75C23.4142 15.75 23.75 15.4142 23.75 15C23.75 14.5858 23.4142 14.25 23 14.25V15.75ZM19.75 11.5C19.75 11.0858 19.4142 10.75 19 10.75C18.5858 10.75 18.25 11.0858 18.25 11.5H19.75ZM18.25 20C18.25 21.5188 17.0188 22.75 15.5 22.75V24.25C17.8472 24.25 19.75 22.3472 19.75 20H18.25ZM15.5 22.75C13.9812 22.75 12.75 21.5188 12.75 20H11.25C11.25 22.3472 13.1528 24.25 15.5 24.25V22.75ZM12.75 20C12.75 18.4812 13.9812 17.25 15.5 17.25V15.75C13.1528 15.75 11.25 17.6528 11.25 20H12.75ZM15.5 17.25C15.6341 17.25 15.7656 17.2595 15.8938 17.2779L16.1062 15.793C15.9078 15.7646 15.7054 15.75 15.5 15.75V17.25ZM23 14.25C22.2254 14.25 21.3924 13.9308 20.7559 13.3992C20.12 12.8682 19.75 12.1883 19.75 11.5H18.25C18.25 12.7446 18.9135 13.8148 19.7944 14.5505C20.6746 15.2857 21.8416 15.75 23 15.75V14.25ZM18.25 11.5V20H19.75V11.5H18.25Z" fill="white"/>
</svg>
