<svg width="35" height="36" viewBox="0 0 35 36" fill="none" xmlns="http://www.w3.org/2000/svg">
<rect x="0.5" y="1" width="34" height="34" rx="17" fill="white"/>
<rect x="0.5" y="1" width="34" height="34" rx="17" stroke="#E7BF44"/>
<path d="M8 18C8 13.5217 8 11.2825 9.39124 9.89124C10.7825 8.5 13.0217 8.5 17.5 8.5C21.9783 8.5 24.2175 8.5 25.6088 9.89124C27 11.2825 27 13.5217 27 18C27 22.4783 27 24.7175 25.6088 26.1088C24.2175 27.5 21.9783 27.5 17.5 27.5C13.0217 27.5 10.7825 27.5 9.39124 26.1088C8 24.7175 8 22.4783 8 18Z" stroke="#E7BF44" stroke-width="1.5" stroke-linejoin="round"/>
<path d="M15.8938 17.7779C16.3038 17.8365 16.6838 17.5517 16.7424 17.1416C16.8011 16.7316 16.5162 16.3517 16.1062 16.293L15.8938 17.7779ZM23 16.25C23.4142 16.25 23.75 15.9142 23.75 15.5C23.75 15.0858 23.4142 14.75 23 14.75V16.25ZM19.75 12C19.75 11.5858 19.4142 11.25 19 11.25C18.5858 11.25 18.25 11.5858 18.25 12H19.75ZM18.25 20.5C18.25 22.0188 17.0188 23.25 15.5 23.25V24.75C17.8472 24.75 19.75 22.8472 19.75 20.5H18.25ZM15.5 23.25C13.9812 23.25 12.75 22.0188 12.75 20.5H11.25C11.25 22.8472 13.1528 24.75 15.5 24.75V23.25ZM12.75 20.5C12.75 18.9812 13.9812 17.75 15.5 17.75V16.25C13.1528 16.25 11.25 18.1528 11.25 20.5H12.75ZM15.5 17.75C15.6341 17.75 15.7656 17.7595 15.8938 17.7779L16.1062 16.293C15.9078 16.2646 15.7054 16.25 15.5 16.25V17.75ZM23 14.75C22.2254 14.75 21.3924 14.4308 20.7559 13.8992C20.12 13.3682 19.75 12.6883 19.75 12H18.25C18.25 13.2446 18.9135 14.3148 19.7944 15.0505C20.6746 15.7857 21.8416 16.25 23 16.25V14.75ZM18.25 12V20.5H19.75V12H18.25Z" fill="#E7BF44"/>
</svg>
