<svg width="35" height="36" viewBox="0 0 35 36" fill="none" xmlns="http://www.w3.org/2000/svg">
<rect x="0.5" y="1" width="34" height="34" rx="17" fill="white"/>
<rect x="0.5" y="1" width="34" height="34" rx="17" stroke="#E7BF44"/>
<path d="M23.5752 14.0734C23.494 13.9816 23.3631 13.9585 23.2556 14.0151C23.1889 14.0503 23.0633 14.0965 22.9142 14.1421C23.1023 13.8849 23.2535 13.5969 23.3203 13.338C23.3492 13.2264 23.3069 13.1088 23.215 13.0423C23.1231 12.9764 23.0008 12.9764 22.9089 13.0423C22.7641 13.1462 22.0651 13.4584 21.6232 13.5595C20.6246 12.6598 19.4624 12.5664 18.2542 13.2919C17.2721 13.8816 17.0584 15.0808 17.1 15.8118C14.8521 15.5892 13.4548 14.368 12.6682 13.3573C12.6132 13.2864 12.5245 13.249 12.4411 13.2545C12.3535 13.2611 12.2744 13.3111 12.2295 13.3886C11.8576 14.0344 11.7545 14.7483 11.9324 15.4535C12.0297 15.8382 12.1996 16.1773 12.3968 16.4521C12.3022 16.4043 12.2108 16.3444 12.1248 16.2729C12.0457 16.2059 11.9351 16.1932 11.8416 16.2378C11.7486 16.2834 11.6893 16.3801 11.6893 16.4862C11.6893 17.697 12.4256 18.5049 13.1133 18.927C13.0022 18.9132 12.8862 18.888 12.7692 18.8511C12.6688 18.8198 12.5597 18.8511 12.4903 18.9325C12.4208 19.0133 12.4043 19.1287 12.4475 19.2271C12.8339 20.1059 13.5659 20.7105 14.4716 20.9298C13.6808 21.4074 12.6223 21.6415 11.653 21.5266C11.5274 21.5085 11.4077 21.5904 11.3682 21.7146C11.3286 21.8388 11.3805 21.9751 11.4911 22.0389C12.9616 22.888 14.291 23.1914 15.4398 23.1914C17.1118 23.1914 18.4022 22.5494 19.1877 22.0125C21.3053 20.567 22.6251 17.9718 22.4413 15.6497C22.7806 15.3919 23.2882 14.9159 23.603 14.4043C23.6682 14.3009 23.6564 14.1646 23.5752 14.0734Z" fill="#E7BF44"/>
</svg>
