<svg width="35" height="36" viewBox="0 0 35 36" fill="none" xmlns="http://www.w3.org/2000/svg">
<rect x="0.5" y="1" width="34" height="34" rx="17" fill="white"/>
<rect x="0.5" y="1" width="34" height="34" rx="17" stroke="#E7BF44"/>
<path d="M17.5 26.5C19.3097 26.5 21.0451 26.3212 22.6534 25.9934C24.6623 25.5839 25.6668 25.3791 26.5834 24.2006C27.5 23.0221 27.5 21.6693 27.5 18.9635V17.0365C27.5 14.3307 27.5 12.9779 26.5834 11.7994C25.6668 10.6209 24.6623 10.4161 22.6534 10.0066C21.0451 9.67877 19.3097 9.5 17.5 9.5C15.6903 9.5 13.9549 9.67877 12.3466 10.0066C10.3377 10.4161 9.33321 10.6209 8.4166 11.7994C7.5 12.9779 7.5 14.3307 7.5 17.0365V18.9635C7.5 21.6693 7.5 23.0221 8.4166 24.2006C9.33321 25.3791 10.3377 25.5839 12.3466 25.9934C13.9549 26.3212 15.6903 26.5 17.5 26.5Z" stroke="#E7BF44" stroke-width="1.5"/>
<path d="M21.4621 18.3129C21.3137 18.9187 20.5241 19.3538 18.9449 20.2241C17.2272 21.1705 16.3684 21.6438 15.6728 21.4615C15.4372 21.3997 15.2202 21.2911 15.038 21.1438C14.5 20.7089 14.5 19.8059 14.5 18C14.5 16.1941 14.5 15.2911 15.038 14.8562C15.2202 14.7089 15.4372 14.6003 15.6728 14.5385C16.3684 14.3562 17.2272 14.8295 18.9449 15.7759C20.5241 16.6462 21.3137 17.0813 21.4621 17.6871C21.5126 17.8933 21.5126 18.1067 21.4621 18.3129Z" stroke="#E7BF44" stroke-width="1.5" stroke-linejoin="round"/>
</svg>
