<svg width="35" height="35" viewBox="0 0 35 35" fill="none" xmlns="http://www.w3.org/2000/svg">
<rect width="35" height="35" rx="17.5" fill="#FF3B30"/>
<path d="M17.5 26C19.3097 26 21.0451 25.8212 22.6534 25.4934C24.6623 25.0839 25.6668 24.8791 26.5834 23.7006C27.5 22.5221 27.5 21.1693 27.5 18.4635V16.5365C27.5 13.8307 27.5 12.4779 26.5834 11.2994C25.6668 10.1209 24.6623 9.91613 22.6534 9.50662C21.0451 9.17877 19.3097 9 17.5 9C15.6903 9 13.9549 9.17877 12.3466 9.50662C10.3377 9.91613 9.33321 10.1209 8.4166 11.2994C7.5 12.4779 7.5 13.8307 7.5 16.5365V18.4635C7.5 21.1693 7.5 22.5221 8.4166 23.7006C9.33321 24.8791 10.3377 25.0839 12.3466 25.4934C13.9549 25.8212 15.6903 26 17.5 26Z" stroke="white" stroke-width="1.5"/>
<path d="M21.4621 17.8129C21.3137 18.4187 20.5241 18.8538 18.9449 19.7241C17.2272 20.6705 16.3684 21.1438 15.6728 20.9615C15.4372 20.8997 15.2202 20.7911 15.038 20.6438C14.5 20.2089 14.5 19.3059 14.5 17.5C14.5 15.6941 14.5 14.7911 15.038 14.3562C15.2202 14.2089 15.4372 14.1003 15.6728 14.0385C16.3684 13.8562 17.2272 14.3295 18.9449 15.2759C20.5241 16.1462 21.3137 16.5813 21.4621 17.1871C21.5126 17.3933 21.5126 17.6067 21.4621 17.8129Z" stroke="white" stroke-width="1.5" stroke-linejoin="round"/>
</svg>
